<?xml version="1.0" standalone="no"?>
<!DOCTYPE svg PUBLIC "-//W3C//DTD SVG 20010904//EN"
 "http://www.w3.org/TR/2001/REC-SVG-20010904/DTD/svg10.dtd">
<svg version="1.0" xmlns="http://www.w3.org/2000/svg"
 width="800.000000pt" height="1928.000000pt" viewBox="0 0 800.000000 1928.000000"
 preserveAspectRatio="xMidYMid meet">
<metadata>
Created by potrace 1.16, written by Peter Selinger 2001-2019
</metadata>
<g transform="translate(0.000000,1928.000000) scale(0.100000,-0.100000)"
fill="#000000" stroke="none">
<path d="M292 17493 l-2 -1523 50 0 50 0 0 -40 0 -40 1535 0 1535 0 0 1351 c0
744 -4 1348 -9 1345 -9 -6 -54 38 -46 45 3 3 -9 19 -27 35 -17 16 -28 23 -24
17 6 -10 -28 -13 -153 -13 l-161 0 0 162 0 162 55 -54 c30 -30 55 -52 55 -49
0 2 -27 31 -60 64 l-60 59 0 -177 0 -177 170 0 170 0 0 -1340 0 -1340 -1535 0
-1535 0 -3 1518 -2 1517 -3 -1522z m3098 -183 c0 -734 -2 -1336 -5 -1338 -3
-3 -5 599 -5 1338 0 739 2 1341 5 1338 3 -3 5 -605 5 -1338z"/>
<path d="M600 18430 c0 -73 2 -80 20 -80 17 0 20 7 20 42 0 39 1 40 18 25 23
-21 32 -21 48 1 12 15 13 12 14 -26 0 -39 2 -43 23 -40 20 3 22 9 25 81 3 76
3 77 -22 77 -17 0 -30 -9 -43 -30 -9 -16 -20 -30 -23 -30 -3 0 -13 14 -22 30
-10 18 -25 30 -38 30 -18 0 -20 -6 -20 -80z"/>
<path d="M2399 18448 c-14 -27 -2 -76 22 -83 10 -4 28 -3 40 0 17 6 20 3 17
-12 -3 -14 -11 -17 -41 -15 -43 4 -49 -9 -12 -26 69 -32 105 0 105 92 l0 64
-60 0 c-50 0 -62 -3 -71 -20z"/>
<path d="M4570 15180 l0 -1340 50 0 50 0 0 -45 0 -45 1525 0 1525 0 0 1173 0
1172 -213 213 -212 212 -1363 0 -1362 0 0 -1340z m2887 1168 l164 -163 -168
-5 -168 -6 173 -2 172 -2 0 -1160 0 -1160 -1525 0 -1525 0 0 1330 0 1330 1357
0 1357 0 163 -162z m253 -1420 l0 -1168 -1515 0 -1515 0 0 40 0 40 1480 0
1480 0 0 1162 0 1162 35 -34 35 -34 0 -1168z"/>
<path d="M5430 16161 c0 -25 -3 -28 -25 -23 -36 6 -55 -14 -55 -59 0 -32 5
-42 25 -51 18 -8 28 -8 38 0 10 9 16 9 25 0 6 -6 18 -8 26 -5 13 5 16 23 16
87 0 79 0 80 -25 80 -21 0 -25 -5 -25 -29z"/>
<path d="M5759 16118 c-14 -27 -2 -76 22 -83 10 -4 28 -3 40 0 17 6 20 3 17
-12 -3 -14 -11 -17 -41 -15 -43 4 -49 -9 -12 -26 69 -32 105 0 105 92 l0 64
-60 0 c-50 0 -62 -3 -71 -20z"/>
<path d="M7648 14984 l-3 -1149 -1477 -3 -1478 -2 0 -30 0 -30 1505 0 1505 0
0 1158 0 1159 -25 23 -25 23 -2 -1149z"/>
<path d="M290 13255 l0 -1625 50 0 50 0 0 -40 0 -40 1530 0 1530 0 -2 1453
c-2 798 -7 1450 -11 1449 -5 -2 -22 9 -38 24 l-29 28 0 -1442 0 -1442 -1479 0
-1480 0 -4 -32 c-4 -33 -4 -32 -5 4 l-2 38 1483 3 1482 2 -1532 3 -1533 2 0
1615 0 1615 1364 -2 c750 -2 1362 0 1359 5 -2 4 -618 7 -1369 7 l-1364 0 0
-1625z m3147 -972 c-1 -400 -2 -75 -2 722 0 798 1 1125 2 728 2 -397 2 -1049
0 -1450z"/>
<path d="M695 14358 c-11 -6 -23 -16 -27 -22 -14 -20 -9 -94 7 -110 32 -32 87
-32 119 0 23 22 21 96 -2 117 -25 22 -72 30 -97 15z"/>
<path d="M1020 14280 c0 -73 2 -80 20 -80 17 0 20 7 20 42 0 39 1 40 18 25 23
-21 32 -21 48 1 12 15 13 12 14 -26 0 -39 2 -43 23 -40 20 3 22 9 25 81 3 76
3 77 -22 77 -17 0 -30 -9 -43 -30 -9 -16 -20 -30 -23 -30 -3 0 -13 14 -22 30
-10 18 -25 30 -38 30 -18 0 -20 -6 -20 -80z"/>
<path d="M4570 10890 l0 -1590 50 0 50 0 0 -40 0 -40 1520 0 1520 0 0 1413 0
1413 -52 49 -53 50 -165 -5 -165 -6 171 -2 c93 -1 174 -6 180 -11 5 -6 8 -537
6 -1413 l-2 -1403 -1525 3 -1525 2 0 1580 0 1580 1348 0 c1064 0 1351 -3 1362
-12 12 -11 12 -10 1 5 -13 16 -90 17 -1367 17 l-1354 0 0 -1590z m3130 -252
l0 -1408 -1510 0 -1510 0 2 38 c1 36 1 36 5 5 l4 -33 1500 0 1499 0 0 1402 0
1402 -27 30 -28 31 33 -29 32 -30 0 -1408z"/>
<path d="M4890 11979 l0 -82 58 7 c67 7 92 30 92 82 0 52 -28 74 -95 74 l-55
0 0 -81z"/>
<path d="M5309 11998 c-14 -27 -2 -76 22 -83 10 -4 28 -3 40 0 17 6 20 3 17
-12 -3 -14 -11 -17 -41 -15 -43 4 -49 -9 -12 -26 69 -32 105 0 105 92 l0 64
-60 0 c-50 0 -62 -3 -71 -20z"/>
<path d="M290 8620 l0 -1760 50 0 50 0 0 -40 0 -40 1530 0 1530 0 0 1583 0
1583 -52 49 -53 50 -165 -5 -165 -6 171 -2 c93 -1 174 -6 180 -11 5 -6 8 -599
6 -1583 l-2 -1573 -1535 3 -1535 2 0 1750 0 1750 1364 -2 c750 -2 1362 0 1359
5 -2 4 -618 7 -1369 7 l-1364 0 0 -1760z m3150 -252 l0 -1578 -1520 0 -1520 0
2 38 c1 36 1 36 5 5 l4 -33 1510 0 1509 0 0 1572 0 1572 -27 30 -28 31 33 -29
32 -30 0 -1578z"/>
<path d="M910 9901 c0 -29 -2 -30 -32 -24 -53 11 -78 -50 -39 -98 16 -21 22
-22 45 -11 17 8 26 8 26 1 0 -6 10 -9 23 -7 21 3 22 8 22 83 0 75 -1 80 -22
83 -20 3 -23 -1 -23 -27z"/>
<path d="M662 9843 l3 -78 63 -3 c57 -3 62 -1 62 18 0 17 -6 20 -40 20 -29 0
-40 4 -40 15 0 11 11 15 40 15 29 0 40 4 40 15 0 11 -11 15 -40 15 -29 0 -40
4 -40 15 0 11 11 15 40 15 29 0 40 4 40 15 0 12 -14 15 -65 15 l-66 0 3 -77z"/>
<path d="M4572 6558 l3 -1383 2 1378 3 1377 1355 0 1355 0 0 -170 0 -170 170
0 170 0 2 -1207 3 -1208 2 1204 3 1205 40 -39 c22 -22 40 -37 40 -34 0 2 -48
52 -107 109 -60 58 -81 77 -48 43 l59 -63 -162 0 -162 0 -2 168 -3 167 -1362
3 -1363 2 2 -1382z"/>
<path d="M7650 6362 l0 -1192 -1480 0 -1480 0 0 -30 0 -30 1510 0 1510 0 0
1193 0 1193 -30 29 -30 29 0 -1192z"/>
<path d="M4890 7420 l0 -80 65 0 c58 0 65 2 65 20 0 17 -7 20 -40 20 -29 0
-40 4 -40 15 0 10 11 15 35 15 24 0 35 5 35 15 0 10 -11 15 -35 15 -24 0 -35
5 -35 15 0 11 11 15 40 15 29 0 40 4 40 15 0 12 -14 15 -65 15 l-65 0 0 -80z"/>
<path d="M5482 7402 c3 -50 6 -57 26 -60 20 -3 22 1 22 42 0 34 4 46 15 46 11
0 15 -12 15 -46 0 -41 2 -45 23 -42 18 2 23 10 25 46 4 56 26 51 30 -6 3 -34
7 -42 23 -42 16 0 19 7 19 49 0 29 -5 53 -12 58 -7 4 -53 9 -101 10 l-88 1 3
-56z"/>
<path d="M5712 7402 c3 -50 6 -57 26 -60 20 -3 22 1 22 42 0 34 4 46 15 46 11
0 15 -12 15 -46 0 -41 2 -45 23 -42 18 2 23 10 25 46 4 56 26 51 30 -6 3 -34
7 -42 23 -42 16 0 19 7 19 49 0 29 -5 53 -12 58 -7 4 -53 9 -101 10 l-88 1 3
-56z"/>
<path d="M290 3965 l0 -1735 49 0 50 0 4 -43 4 -42 1 42 2 43 1483 3 1482 2
-1532 3 -1533 2 0 1725 0 1725 1357 0 1357 0 163 -162 164 -163 -163 -5 -163
-6 168 -2 c108 -1 172 -6 180 -13 9 -9 11 -361 9 -1565 l-2 -1554 -1480 0
-1480 0 0 -30 0 -30 1510 0 1510 0 0 1552 0 1552 -27 30 -28 31 33 -29 32 -30
2 -1560 3 -1561 2 1560 3 1560 -217 217 -218 218 -1362 0 -1363 0 0 -1735z"/>
<path d="M970 5160 c0 -64 3 -82 16 -87 8 -3 20 -1 26 5 9 9 15 9 25 0 10 -8
20 -8 38 0 20 9 25 19 25 51 0 45 -19 65 -55 59 -22 -5 -25 -2 -25 23 0 24 -4
29 -25 29 -25 0 -25 -1 -25 -80z"/>
<path d="M4672 5138 l-2 -48 1528 2 1527 3 -1522 2 -1522 3 -4 43 -4 42 -1
-47z"/>
<path d="M4572 2153 l-2 -1683 50 0 50 0 0 -45 0 -45 1520 0 1520 0 0 1513 0
1512 -215 215 c-118 118 -215 212 -215 209 0 -3 72 -77 160 -164 88 -88 160
-163 160 -167 0 -4 -73 -9 -162 -11 l-163 -3 172 -2 173 -2 40 -36 40 -36 0
-1509 0 -1509 -1510 0 -1510 0 0 40 0 40 1473 3 1472 2 -1522 3 -1523 2 -3
1677 -2 1678 -3 -1682z"/>
<path d="M4910 3410 l0 -80 28 0 c38 0 94 17 104 32 4 7 8 31 8 54 0 56 -22
74 -88 74 l-52 0 0 -80z"/>
<path d="M5850 3409 l0 -82 58 7 c67 7 92 30 92 82 0 52 -28 74 -95 74 l-55 0
0 -81z"/>
<path d="M5169 3428 c-14 -27 -2 -76 22 -83 10 -4 28 -3 40 0 17 6 20 3 17
-12 -3 -14 -11 -17 -41 -15 -43 4 -49 -9 -12 -26 69 -32 105 0 105 92 l0 64
-60 0 c-50 0 -62 -3 -71 -20z"/>
<path d="M7630 1957 l0 -1497 -1470 0 -1470 0 0 -30 0 -30 1500 0 1500 0 0
1498 0 1498 -30 29 -30 29 0 -1497z"/>
</g>
</svg>
